<?xml version="1.0" standalone="no"?><!DOCTYPE svg PUBLIC "-//W3C//DTD SVG 1.1//EN" "http://www.w3.org/Graphics/SVG/1.1/DTD/svg11.dtd"><svg t="1589871511022" class="icon" viewBox="0 0 1024 1024" version="1.1" xmlns="http://www.w3.org/2000/svg" p-id="4083" xmlns:xlink="http://www.w3.org/1999/xlink" width="200" height="200"><defs><style type="text/css"></style></defs><path d="M488.727273 851.781818h46.545454v144.290909c0 13.963636-9.309091 23.272727-23.272727 23.272728s-23.272727-9.309091-23.272727-23.272728v-144.290909zM358.4 200.145455V558.545455c0 83.781818 69.818182 153.6 153.6 153.6s153.6-69.818182 153.6-153.6V200.145455C670.254545 116.363636 600.436364 46.545455 512 46.545455S358.4 116.363636 358.4 200.145455z m358.4 0V558.545455c0 111.709091-88.436364 200.145455-200.145455 200.145454S311.854545 670.254545 311.854545 558.545455V200.145455C311.854545 88.436364 400.290909 0 512 0s204.8 88.436364 204.8 200.145455z" p-id="4084" fill="#8a8a8a"></path><path d="M176.872727 549.236364C176.872727 744.727273 325.818182 898.327273 512 898.327273s335.127273-158.254545 335.127273-349.090909c0-13.963636-9.309091-23.272727-23.272728-23.272728s-23.272727 9.309091-23.272727 23.272728c0 167.563636-130.327273 302.545455-288.581818 302.545454s-288.581818-134.981818-288.581818-302.545454c0-13.963636-9.309091-23.272727-23.272727-23.272728s-23.272727 13.963636-23.272728 23.272728z" p-id="4085" fill="#8a8a8a"></path></svg>